<svg data-name="Слой 1" xmlns="http://www.w3.org/2000/svg" viewBox="0 0 99.341 20.744"><path d="M20.43 12.881A10.368 10.368 0 1112.877.31a10.369 10.369 0 017.553 12.571z" fill="#76aa9f"/><path d="M14.941 8.894c.206-1.38-.844-2.122-2.281-2.617l.466-1.869-1.138-.284-.454 1.82c-.3-.075-.606-.145-.912-.215l.457-1.832-1.137-.284-.467 1.869a31.424 31.424 0 01-.726-.171v-.006L7.18 4.913l-.3 1.215s.844.194.826.205a.606.606 0 01.531.662l-.531 2.13a.966.966 0 01.118.038l-.12-.03-.744 2.984a.414.414 0 01-.522.27c.011.016-.827-.207-.827-.207l-.565 1.3 1.481.369c.275.069.545.141.811.21l-.471 1.891 1.137.284.467-1.871c.311.084.612.162.907.235l-.465 1.862 1.138.284.471-1.887c1.94.367 3.4.219 4.014-1.536a2 2 0 00-1.045-2.76 1.815 1.815 0 001.453-1.671zm-2.6 3.646c-.352 1.413-2.731.649-3.5.458l.625-2.505c.769.193 3.243.573 2.875 2.047zm.352-3.667c-.321 1.286-2.3.632-2.944.472l.567-2.272c.643.161 2.711.46 2.377 1.8z" fill="#212121"/><path d="M30.392 6.276a4.953 4.953 0 012.179.447 4.388 4.388 0 011.526 1.208 5.091 5.091 0 01.891 1.785 8.156 8.156 0 01.287 2.205 8.979 8.979 0 01-2.493 6.236 8.584 8.584 0 01-2.73 1.888 8.337 8.337 0 01-3.41.7c-.158 0-.436 0-.829-.013a12.083 12.083 0 01-1.35-.117 15.875 15.875 0 01-1.615-.317 8.067 8.067 0 01-1.615-.577L25.774.638l4.068-.63-1.626 6.772a6.3 6.3 0 011.049-.367 4.648 4.648 0 011.128-.133zM26.98 17.514a3.564 3.564 0 001.732-.447 4.559 4.559 0 001.406-1.194 6.028 6.028 0 00.931-1.694 5.768 5.768 0 00.342-1.97 3.876 3.876 0 00-.42-1.968 1.651 1.651 0 00-1.549-.709 4.869 4.869 0 00-.957.131 2.385 2.385 0 00-1.064.553l-1.733 7.191c.1.019.2.036.276.053a2.1 2.1 0 00.247.039 2.83 2.83 0 00.317.015h.472zm12.514 2.86h-3.885L38.89 6.568h3.912zm1.891-15.488a2.411 2.411 0 01-1.47-.485 1.715 1.715 0 01-.657-1.484 2.468 2.468 0 01.222-1.036 2.775 2.775 0 01.592-.841 2.9 2.9 0 01.852-.565 2.6 2.6 0 011.038-.209 2.412 2.412 0 011.469.485 1.732 1.732 0 01.656 1.484 2.453 2.453 0 01-.223 1.038 2.735 2.735 0 01-.59.84 2.86 2.86 0 01-.852.563 2.562 2.562 0 01-1.036.209zm4.821-1.758l4.069-.631-1 4.07h4.358l-.787 3.2h-4.331l-1.154 4.829a5.456 5.456 0 00-.184 1.128 2.063 2.063 0 00.13.906 1.139 1.139 0 00.564.589 2.583 2.583 0 001.168.212 6.213 6.213 0 001.222-.119 8.612 8.612 0 001.193-.328l.29 2.994a14 14 0 01-1.706.5 9.83 9.83 0 01-2.179.209 6.034 6.034 0 01-2.809-.536 3.119 3.119 0 01-1.418-1.472 4.679 4.679 0 01-.367-2.138 13.835 13.835 0 01.367-2.546zm7.257 11.734a9.7 9.7 0 01.577-3.36 8.268 8.268 0 011.655-2.758 7.751 7.751 0 012.613-1.863 8.347 8.347 0 013.424-.683 9.046 9.046 0 012.112.224 8.537 8.537 0 011.695.59l-1.34 3.046c-.35-.142-.713-.267-1.089-.38a4.733 4.733 0 00-1.378-.172 3.85 3.85 0 00-3.085 1.338 5.364 5.364 0 00-1.143 3.6 3.7 3.7 0 00.579 2.166 2.419 2.419 0 002.125.826 6.827 6.827 0 001.47-.157 7.261 7.261 0 001.261-.393l.29 3.123a14.071 14.071 0 01-1.628.513 9.044 9.044 0 01-2.127.221 7.177 7.177 0 01-2.756-.472 5.242 5.242 0 01-1.863-1.273 4.8 4.8 0 01-1.064-1.878 7.706 7.706 0 01-.33-2.256zm17.258 5.879a6.35 6.35 0 01-2.416-.421 4.463 4.463 0 01-1.692-1.181 5.1 5.1 0 01-1.011-1.8 7.259 7.259 0 01-.339-2.294 10.136 10.136 0 01.51-3.152 8.925 8.925 0 011.511-2.834 8.062 8.062 0 012.44-2.063 6.712 6.712 0 013.305-.8 6.389 6.389 0 012.4.421 4.489 4.489 0 011.706 1.181 5.123 5.123 0 011.008 1.8 7.279 7.279 0 01.342 2.3 10.469 10.469 0 01-.5 3.152 9.1 9.1 0 01-1.47 2.834 7.709 7.709 0 01-2.428 2.06 6.894 6.894 0 01-3.373.8zm1.942-11.235a2.456 2.456 0 00-1.521.5 4.286 4.286 0 00-1.1 1.261 6.22 6.22 0 00-.672 1.667 7.186 7.186 0 00-.222 1.719 4.186 4.186 0 00.419 2.049 1.605 1.605 0 001.523.734 2.442 2.442 0 001.523-.5 4.3 4.3 0 001.1-1.259 6.241 6.241 0 00.672-1.667 7.283 7.283 0 00.222-1.719 4.155 4.155 0 00-.421-2.048 1.6 1.6 0 00-1.523-.736zm10.061 10.868h-3.888l3.281-13.806h3.914zm1.888-15.489a2.407 2.407 0 01-1.469-.485 1.721 1.721 0 01-.657-1.484 2.464 2.464 0 01.223-1.036 2.74 2.74 0 01.591-.841 2.9 2.9 0 01.853-.565 2.582 2.582 0 011.035-.209 2.412 2.412 0 011.471.485 1.731 1.731 0 01.658 1.484 2.488 2.488 0 01-.225 1.038 2.727 2.727 0 01-.589.84 2.888 2.888 0 01-.852.563 2.57 2.57 0 01-1.039.211zm4.217 2.312c.3-.086.625-.19.982-.3s.761-.218 1.21-.312a14.462 14.462 0 011.495-.238 16.782 16.782 0 011.875-.093q3.074 0 4.241 1.786t.409 4.882l-1.787 7.455h-3.911l1.732-7.3c.106-.456.189-.9.25-1.327a3.137 3.137 0 00-.014-1.128 1.352 1.352 0 00-.484-.789 1.88 1.88 0 00-1.169-.3 7.891 7.891 0 00-1.548.16l-2.542 10.681h-3.912l3.178-13.177z" fill="#76aa9f"/></svg>